# xmcd
#
# Track frame offsets: 
#        150
#        14580
#        31076
#        47085
#        65610
#        81525
#        100036
#        102793
#        117574
#        133644
#        148163
#        159782
#        176465
#
# Disc length: 2640 seconds
#
# Revision: 0
# Processed by: cddbd v1.5.2PL0 Copyright (c) Steve Scherf et al.
# Submitted via: ExactAudioCopy v0.99pb4
#
DISCID=ac0a4e0d
DTITLE=Cassie - Cassie [Bonus Tracks]
DYEAR=2006
DGENRE=R&B
TTITLE0=Me and U
TTITLE1=Long Way 2 Go
TTITLE2=About Time
TTITLE3=Kiss Me
TTITLE4=Call U Out
TTITLE5=Just One Nite
TTITLE6=Hope You're Behaving (Interlude)
TTITLE7=Not With You
TTITLE8=Ditto
TTITLE9=What Do You Want
TTITLE10=Miss Your Touch
TTITLE11=When Your Body Is Talking
TTITLE12=Me and U (Remix)
EXTD=
EXTT0=
EXTT1=
EXTT2=
EXTT3=
EXTT4=
EXTT5=
EXTT6=
EXTT7=
EXTT8=
EXTT9=
EXTT10=
EXTT11=
EXTT12=
PLAYORDER=
